<svg width="64" height="64" viewBox="0 0 64 64" fill="none" xmlns="http://www.w3.org/2000/svg">
<rect width="64" height="64" rx="12" fill="hsl(180, 100%, 25.1%)"/>
<path d="M22 22H42V26H22V22Z" fill="white"/>
<path d="M22 30H42V34H22V30Z" fill="white"/>
<path d="M22 38H36V42H22V38Z" fill="white"/>
<path d="M30 48C27.7909 48 26 46.2091 26 44C26 41.7909 27.7909 40 30 40C32.2091 40 34 41.7909 34 44C34 46.2091 32.2091 48 30 48ZM30 46C31.1046 46 32 45.1046 32 44C32 42.8954 31.1046 42 30 42C28.8954 42 28 42.8954 28 44C28 45.1046 28.8954 46 30 46Z" fill="hsl(39, 100%, 50%)"/>
<path d="M40 48C37.7909 48 36 46.2091 36 44C36 41.7909 37.7909 40 40 40C42.2091 40 44 41.7909 44 44C44 46.2091 42.2091 48 40 48ZM40 46C41.1046 46 42 45.1046 42 44C42 42.8954 41.1046 42 40 42C38.8954 42 38 42.8954 38 44C38 45.1046 38.8954 46 40 46Z" fill="hsl(39, 100%, 50%)"/>
<path d="M20 48C17.7909 48 16 46.2091 16 44C16 41.7909 17.7909 40 20 40C22.2091 40 24 41.7909 24 44C24 46.2091 22.2091 48 20 48ZM20 46C21.1046 46 22 45.1046 22 44C22 42.8954 21.1046 42 20 42C18.8954 42 18 42.8954 18 44C18 45.1046 18.8954 46 20 46Z" fill="hsl(39, 100%, 50%)"/>
</svg>
